<svg width="32" height="32" viewBox="0 0 32 32" fill="none" xmlns="http://www.w3.org/2000/svg">
<path d="M14.708 15.847C14.252 14.864 14 13.742 14 12.5C14 11.258 14.252 10.011 14.708 8.841C15.163 7.67 15.822 6.575 16.637 5.636C17.451 4.698 18.421 3.913 19.497 3.365C20.574 2.814 21.758 2.5 23 2.5C24.242 2.5 25.426 2.752 26.503 3.207C27.58 3.663 28.549 4.322 29.363 5.136C30.176 5.95 30.837 6.92 31.292 7.997C31.749 9.073 32 10.258 32 11.5C32 12.742 31.748 13.927 31.292 15.003C30.837 16.08 30.178 17.05 29.363 17.864C28.55 18.678 17.077 29.044 16 29.5C14.923 29.044 3.45 18.678 2.636 17.864C1.822 17.05 1.163 16.08 0.707 15.003C0.252 13.927 0 12.742 0 11.5C0 10.258 0.252 9.073 0.707 7.997C1.163 6.92 1.821 5.95 2.636 5.136C3.45 4.322 4.42 3.663 5.497 3.207C6.573 2.752 7.757 2.5 9 2.5C10.243 2.5 11.427 2.814 12.503 3.363C13.58 3.913 14.549 4.697 15.364 5.635C16.178 6.574 16.837 7.669 17.293 8.84C17.748 10.011 18 11.258 18 12.5C18 13.742 17.748 14.864 17.293 15.847C16.837 16.83 16.18 17.675 15.364 18.365" fill="#FF0000"/>
</svg>
